<svg xmlns="http://www.w3.org/2000/svg" width="128" height="128" viewBox="0 0 128 128" version="1.1"><path d="M 40.405 72.155 C 39.962 72.870, 40.130 73.038, 40.845 72.595 C 41.480 72.203, 42 71.684, 42 71.441 C 42 70.607, 41.117 71.002, 40.405 72.155" stroke="none" fill="#44d4d4" fill-rule="evenodd"/><path d="M 52.667 8.667 C 51.431 9.903, 51.988 12.781, 53.582 13.393 C 54.452 13.727, 57.890 14, 61.221 14 L 67.279 14 40.100 41.175 C 23.749 57.524, 13.041 68.973, 13.222 69.914 C 14.135 74.657, 17.562 71.924, 44.642 44.858 L 72 17.514 72 25.150 C 72 31.279, 72.321 32.909, 73.627 33.410 C 77.073 34.733, 78 32.200, 78 21.459 C 78 15.797, 77.727 10.452, 77.393 9.582 C 76.887 8.264, 74.830 8, 65.060 8 C 58.610 8, 53.033 8.300, 52.667 8.667 M 83.200 35.200 C 82.459 35.941, 82 39.578, 82 44.700 L 82 53 72.107 53 C 60.591 53, 61 52.610, 61 63.582 L 61 71 51.700 71 C 45.800 71, 41.961 71.439, 41.200 72.200 C 40.459 72.941, 40 76.578, 40 81.700 L 40 90 29.607 90 C 21.052 90, 19.107 90.280, 18.607 91.582 C 18.273 92.452, 18 97.852, 18 103.582 L 18 114 14.250 114.015 C 9.611 114.034, 7.694 115.170, 8.165 117.620 C 8.514 119.430, 10.616 119.510, 64.264 119.758 L 120 120.017 120 117.615 C 120 114.899, 118.364 114, 113.418 114 L 110 114 110 75.200 C 110 46.356, 109.692 36.092, 108.800 35.200 C 107.145 33.545, 84.855 33.545, 83.200 35.200 M 88 77 L 88 114 96 114 L 104 114 104 77 L 104 40 96 40 L 88 40 88 77 M 67 86.500 L 67 114 74.500 114 L 82 114 82 86.500 L 82 59 74.500 59 L 67 59 67 86.500 M 46 95.500 L 46 114 53.500 114 L 61 114 61 95.500 L 61 77 53.500 77 L 46 77 46 95.500 M 24 105 L 24 114 32 114 L 40 114 40 105 L 40 96 32 96 L 24 96 24 105" stroke="none" fill="#3cd4d4" fill-rule="evenodd"/></svg>