<svg xmlns="http://www.w3.org/2000/svg" width="128" height="128" viewBox="0 0 128 128" version="1.1"><path d="M 66.500 18 C 66.840 18.550, 67.343 19, 67.618 19 C 67.893 19, 67.840 18.550, 67.500 18 C 67.160 17.450, 66.657 17, 66.382 17 C 66.107 17, 66.160 17.450, 66.500 18 M 78 32 C 78 32.733, 78.300 33.033, 78.667 32.667 C 79.033 32.300, 79.033 31.700, 78.667 31.333 C 78.300 30.967, 78 31.267, 78 32 M 79 38 C 79 38.733, 79.300 39.033, 79.667 38.667 C 80.033 38.300, 80.033 37.700, 79.667 37.333 C 79.300 36.967, 79 37.267, 79 38 M 47.079 66.583 C 47.127 67.748, 47.364 67.985, 47.683 67.188 C 47.972 66.466, 47.936 65.603, 47.604 65.271 C 47.272 64.939, 47.036 65.529, 47.079 66.583" stroke="none" fill="#44d4d4" fill-rule="evenodd"/><path d="M 60.601 2.250 C 59.806 3.488, 58.403 6.104, 57.482 8.063 C 55.921 11.386, 55.365 11.703, 49.252 12.750 C 43.346 13.761, 41.060 15.017, 41.015 17.272 C 41.007 17.697, 42.913 20.127, 45.250 22.672 C 49.471 27.268, 49.500 27.350, 49.500 34.899 C 49.500 42.003, 49.646 42.521, 51.733 42.817 C 52.961 42.992, 56.124 41.921, 58.762 40.439 L 63.558 37.742 68.746 40.371 C 78.099 45.111, 80.304 43.746, 78.738 34.185 L 77.703 27.870 82.454 23.046 C 86.156 19.288, 87.058 17.757, 86.536 16.114 C 85.850 13.953, 84.712 13.481, 77.145 12.220 C 73.094 11.545, 72.579 11.092, 69.791 5.747 C 67.422 1.208, 66.294 -0, 64.419 -0 C 63.053 -0, 61.433 0.955, 60.601 2.250 M 62.182 16.500 C 61.555 17.875, 60.696 19.034, 60.271 19.077 C 54.993 19.600, 54.364 20.364, 57.021 23.021 C 58.683 24.683, 59.064 25.929, 58.608 28.210 C 58.090 30.801, 58.247 31.104, 59.754 30.427 C 62.041 29.400, 66.017 29.429, 68.409 30.489 C 70.127 31.252, 70.253 31.015, 69.672 28.108 C 69.138 25.440, 69.482 24.457, 71.659 22.440 C 74.247 20.041, 74.254 20, 72.069 20 C 70.846 20, 68.496 18.650, 66.846 17 C 65.196 15.350, 63.728 14, 63.584 14 C 63.439 14, 62.808 15.125, 62.182 16.500 M 5.734 41.837 C 1.453 44.660, 0.066 47.117, 0.032 51.940 C 0 56.376, 0.019 56.399, 18.537 75.011 L 37.075 93.642 37.287 108.409 L 37.500 123.176 40.306 125.588 C 43.074 127.968, 43.385 128, 63.622 128 C 76.401 128, 84.892 127.593, 86.150 126.920 C 89.925 124.900, 91.111 119.797, 90.937 106.331 L 90.776 93.834 109.888 74.561 L 129 55.289 129 50.478 C 129 47.832, 128.703 45.964, 128.340 46.327 C 127.977 46.690, 127.049 46.088, 126.279 44.988 C 123.943 41.653, 119.198 39.741, 115.129 40.495 C 112.155 41.046, 108.569 44.077, 95.263 57.281 C 81.580 70.861, 79.175 72.877, 79.970 70.105 C 81.589 64.459, 79.477 58.005, 74.583 53.644 C 67.530 47.360, 54.891 49.449, 50.003 57.707 C 48.359 60.486, 47.791 62.941, 47.878 66.890 L 47.997 72.279 32.748 57.028 C 14.763 39.041, 12.179 37.587, 5.734 41.837 M 0.286 51.500 C 0.294 54.250, 0.488 55.256, 0.718 53.736 C 0.947 52.216, 0.941 49.966, 0.704 48.736 C 0.467 47.506, 0.279 48.750, 0.286 51.500 M 9.250 48.662 C 5.643 50.118, 8.540 54.021, 26.750 72.247 L 45.500 91.014 45.824 105.507 L 46.148 120 64.324 119.999 L 82.500 119.998 82.500 105.508 L 82.500 91.017 101.250 72.249 C 111.563 61.926, 120 52.788, 120 51.940 C 120 50.217, 118.109 48, 116.638 48 C 116.109 48, 107.722 55.875, 98 65.500 L 80.323 83 64 83 L 47.677 83 30 65.500 C 20.278 55.875, 11.913 48.036, 11.412 48.079 C 10.910 48.122, 9.938 48.385, 9.250 48.662 M 58.455 60.455 C 54.101 64.808, 55.579 71.749, 61.323 73.933 C 64.402 75.103, 66.596 74.516, 69.750 71.677 C 74.731 67.193, 70.866 58, 64 58 C 62.052 58, 60.002 58.907, 58.455 60.455" stroke="none" fill="#3cd4d4" fill-rule="evenodd"/></svg>