<svg xmlns="http://www.w3.org/2000/svg" width="128" height="128" viewBox="0 0 128 128" version="1.1"><path d="M 113.333 35.667 C 113.700 36.033, 114.300 36.033, 114.667 35.667 C 115.033 35.300, 114.733 35, 114 35 C 113.267 35, 112.967 35.300, 113.333 35.667 M 66.500 55 C 66.840 55.550, 67.343 56, 67.618 56 C 67.893 56, 67.840 55.550, 67.500 55 C 67.160 54.450, 66.657 54, 66.382 54 C 66.107 54, 66.160 54.450, 66.500 55 M 27.500 72 C 27.840 72.550, 28.343 73, 28.618 73 C 28.893 73, 28.840 72.550, 28.500 72 C 28.160 71.450, 27.657 71, 27.382 71 C 27.107 71, 27.160 71.450, 27.500 72 M 18.333 77.667 C 18.700 78.033, 19.300 78.033, 19.667 77.667 C 20.033 77.300, 19.733 77, 19 77 C 18.267 77, 17.967 77.300, 18.333 77.667 M 40.500 91 C 40.840 91.550, 41.343 92, 41.618 92 C 41.893 92, 41.840 91.550, 41.500 91 C 41.160 90.450, 40.657 90, 40.382 90 C 40.107 90, 40.160 90.450, 40.500 91 M 82.333 97.667 C 82.700 98.033, 83.300 98.033, 83.667 97.667 C 84.033 97.300, 83.733 97, 83 97 C 82.267 97, 81.967 97.300, 82.333 97.667" stroke="none" fill="#44d4d4" fill-rule="evenodd"/><path d="M 0.750 24.553 C 0.337 24.982, 0 36.910, 0 51.060 C 0 73.596, 0.196 76.861, 1.582 77.393 C 4.599 78.551, 17.473 78.002, 20.158 76.601 C 22.667 75.292, 23.002 75.408, 26.158 78.672 C 27.996 80.573, 31.969 84.012, 34.988 86.314 C 38.006 88.616, 43.181 92.689, 46.488 95.364 C 55.795 102.893, 59.768 104.350, 68.702 103.513 C 74.754 102.946, 76.732 102.310, 79.320 100.098 C 81.069 98.603, 83.554 97.319, 84.841 97.245 C 87.460 97.095, 92 94.438, 92 93.056 C 92 92.563, 93.345 91.864, 94.988 91.503 C 98.379 90.758, 102 86.728, 102 83.699 C 102 82.582, 102.786 80.922, 103.746 80.010 C 105.376 78.463, 105.560 78.490, 106.525 80.426 C 107.468 82.316, 108.440 82.500, 117.513 82.500 L 127.466 82.500 128.175 78.500 C 129.043 73.608, 128.987 22.288, 128.118 26.500 L 127.500 29.500 118 29.694 C 107.206 29.915, 93.203 33.078, 91.220 35.743 C 90.012 37.367, 89.678 37.362, 85.220 35.655 C 65.602 28.138, 64.379 27.983, 56.482 32.009 C 53.332 33.615, 50.587 34, 42.289 34 C 32.890 34, 32 33.838, 32 32.122 C 32 31.090, 31.438 29.780, 30.750 29.212 C 27.402 26.445, 2.629 22.598, 0.750 24.553 M 0.437 51 C 0.437 65.575, 0.577 71.537, 0.747 64.250 C 0.918 56.962, 0.918 45.037, 0.747 37.750 C 0.577 30.462, 0.437 36.425, 0.437 51 M 6 50.958 L 6 72.105 11.214 71.802 L 16.427 71.500 18.255 65.500 C 20.562 57.930, 24.707 41.643, 25.542 36.871 L 26.177 33.242 21.339 32.167 C 18.677 31.575, 14.138 30.804, 11.250 30.452 L 6 29.812 6 50.958 M 60.500 36.881 C 58.300 37.918, 54.609 40.731, 52.297 43.133 C 48.117 47.477, 44.510 54.176, 45.706 55.373 C 47.288 56.955, 52.097 55.799, 55.012 53.136 C 57.860 50.535, 63.779 48, 67.004 48 C 67.704 48, 70.171 49.688, 72.486 51.750 C 74.801 53.813, 81.301 59.325, 86.931 64 C 92.561 68.675, 97.596 73.287, 98.119 74.250 C 98.992 75.856, 99.267 75.871, 101.449 74.442 C 103.412 73.155, 103.687 72.414, 103.025 70.192 C 102.056 66.941, 98.574 57.347, 95.879 50.500 L 93.910 45.500 81.705 40.763 C 66.251 34.764, 65.345 34.599, 60.500 36.881 M 106 36.940 C 100.584 38.090, 98.542 38.945, 98.652 40.016 C 98.736 40.832, 100.011 44.650, 101.485 48.500 C 102.960 52.350, 105.816 60.328, 107.833 66.230 L 111.500 76.959 116.750 76.980 L 122 77 122 55.992 L 122 34.984 117.750 35.166 C 115.412 35.266, 110.125 36.064, 106 36.940 M 28.265 51.750 C 26.572 58.213, 24.897 64.401, 24.542 65.501 C 23.817 67.751, 28.488 73.166, 38 81.101 C 56.352 96.409, 70.239 103.863, 58.719 92.221 C 52.601 86.039, 52 84.659, 54.750 83.120 C 56.181 82.319, 57.890 83.493, 64.135 89.570 C 71.766 96.996, 74.527 98.396, 75.670 95.417 C 76.080 94.348, 74.284 91.822, 70.139 87.640 C 63.961 81.407, 62.657 78.453, 65.586 77.329 C 66.669 76.913, 69.448 78.982, 74.359 83.860 C 81.206 90.661, 83.853 92.016, 86.728 90.189 C 87.572 89.653, 85.464 86.932, 79.978 81.478 C 72.116 73.663, 70.467 70.526, 73.589 69.328 C 74.688 68.906, 77.864 71.392, 83.900 77.400 C 90.250 83.721, 93.081 85.906, 94.311 85.434 C 98.957 83.651, 94.070 77.119, 79.383 65.483 C 76.697 63.355, 72.659 59.878, 70.410 57.756 C 66.553 54.118, 66.153 53.969, 63.410 55.159 C 61.809 55.853, 59.022 57.676, 57.215 59.210 C 53.112 62.695, 45.617 63.130, 41.875 60.100 C 38.737 57.559, 38.870 51.770, 42.187 46.441 C 43.537 44.274, 44.973 41.938, 45.379 41.250 C 45.943 40.296, 44.368 40, 38.730 40 L 31.343 40 28.265 51.750" stroke="none" fill="#3cd4d4" fill-rule="evenodd"/></svg>